# xmcd
#
# Track frame offsets:
#	150
#	19210
#	33278
#	48377
#	65588
#	85712
#	101528
#	120044
#	133576
#	153937
#	172619
#	191274
#	205272
#	216999
#
# Disc length: 3078 seconds
#
# Revision: 1
# Processed by: cddbd v1.5.2PL0 Copyright (c) Steve Scherf et al.
# Submitted via: EasyCDDAExtractor 10.5.1.1
#
DISCID=ab0c040e
DTITLE=Rune Rudberg - Halfway To Paradise
DYEAR=1997
DGENRE=Pop
TTITLE0=Halfway To Paradise
TTITLE1=Maria
TTITLE2=Du E´ Det Vackraste Jag
TTITLE3=Når Hjertet Står I Brann
TTITLE4=Stormande Hav
TTITLE5=Drømmekvinnen
TTITLE6=Jeg Vil Våkne Opp Med Deg
TTITLE7=Hot Summer
TTITLE8=Min Reddende Engel
TTITLE9=Baby Sunrise
TTITLE10=Midnight Lady
TTITLE11=Ljuvliga Weekend
TTITLE12=Teacher, Teacher
TTITLE13=Ciad Amore
EXTD=
EXTT0=
EXTT1=
EXTT2=
EXTT3=
EXTT4=
EXTT5=
EXTT6=
EXTT7=
EXTT8=
EXTT9=
EXTT10=
EXTT11=
EXTT12=
EXTT13=
PLAYORDER=
